<svg width="132" height="44" viewBox="0 0 132 44" fill="none" xmlns="http://www.w3.org/2000/svg">
<path d="M0.0100837 32.4895C-0.288044 25.7663 6.06097 19.9696 14.2098 19.5775C20.5036 19.2738 26.3484 22.1415 28.3359 26.8042C30.7246 32.1781 17.6438 35.1534 16.9592 29.7679C16.4954 25.9854 15.774 23.164 14.3681 23.2332C13.0357 23.2985 11.9462 25.5434 12.0677 28.3226C12.4284 36.4296 22.4138 39.0204 24.394 35.1188C25.2847 33.4658 29.5394 33.9925 28.1703 36.6218C25.9766 40.754 21.0594 43.6985 15.2845 43.9792C7.14306 44.3674 0.311892 39.2818 0.0100837 32.4895Z" fill="#353EEF"/>
<path d="M30.2189 28.4326C30.2602 21.6999 36.697 16.2489 44.6072 16.2985C52.5173 16.3481 58.8867 21.8792 58.8455 28.6119C58.8042 35.4171 52.3674 40.7918 44.4572 40.7423C36.5471 40.6965 30.1777 35.2378 30.2189 28.4326ZM41.6568 28.5051C41.6268 33.2619 42.8977 37.0765 44.4797 37.0841C46.133 37.0955 47.4526 33.2962 47.4826 28.5395C47.5126 23.8552 46.2379 19.9681 44.5847 19.9567C43.0027 19.9529 41.683 23.8208 41.6568 28.5051Z" fill="#353EEF"/>
<path d="M92.2452 39.6809C92.2452 42.8978 89.8674 43.9961 85.4617 43.9961C80.9889 43.9961 78.6112 42.8978 78.6112 39.6809C78.6112 35.7318 80.7061 33.8273 80.7061 29.146C80.7061 26.0731 79.4484 23.2223 77.5618 23.2223C75.1841 23.2223 72.4603 26.8793 72.4603 30.8323V31.2724C72.4603 36.1757 74.6296 36.5418 74.6296 39.6848C74.6296 42.9017 72.2519 44 67.7792 44C63.3064 44 60.9287 42.9017 60.9287 39.6848C60.9287 36.8339 63.0943 37.126 63.0943 32.8069C63.0943 29.6601 60.4375 28.8539 60.4375 26.0731C60.4375 22.124 72.1105 16.8546 74.2799 21.1699C75.8874 20.1456 77.8446 19.5614 80.0103 19.5614C86.1612 19.5614 90.1465 23.2223 90.1465 28.7799V29.146C90.2172 33.8273 92.2452 35.7279 92.2452 39.6809Z" fill="#353EEF"/>
<path d="M92.2453 16.6632C92.1706 15.0308 93.4371 13.6175 95.0511 13.542L95.8245 13.5042C96.766 4.99822 103.229 0.354143 110.317 0.0178344C115.648 -0.235341 122.298 2.22462 123.822 6.27543C125.896 11.5808 113.13 13.7498 112.252 8.45955C111.654 4.64679 110.694 3.62653 108.938 3.70967C106.483 3.82681 105.452 8.92433 105.224 13.0583L107.257 12.9638C108.942 12.8845 110.268 14.173 110.343 15.8054C110.418 17.4378 109.218 18.8435 107.533 18.9229L105.288 19.0287C105.523 21.7343 105.979 23.8806 106.364 25.3619C106.995 27.8067 107.604 29.1255 107.97 31.8084C108.295 34.1777 108.475 35.3717 107.884 36.4336C106.439 39.0409 102.396 39.0976 101.358 39.1089C100.599 39.1203 96.1196 39.1769 94.6812 36.4638C94.5094 36.1388 94.2927 35.606 94.4122 33.1234C94.6028 29.1595 95.3126 27.2399 95.6862 23.567C95.7796 22.6487 95.8917 21.2317 95.8917 19.4708L95.3313 19.4973C93.7136 19.5804 92.3201 18.2918 92.2453 16.6632Z" fill="#353EEF"/>
<path d="M109.734 21.6833C109.734 20.0528 111.113 18.7046 112.78 18.7046H113.794C115.677 18.7046 118.791 13.037 122.49 13.037C124.662 13.037 126.329 13.8875 126.329 16.1531C126.329 17.1447 126.04 17.9247 125.676 18.7046H127.848C129.515 18.7046 130.893 20.0528 130.893 21.6833C130.893 23.3137 129.515 24.6582 127.848 24.6582H124.081V33.089C124.081 35.4994 124.734 37.271 128.645 35.4288C130.24 34.7195 133.21 35.57 131.47 38.3332C129.587 41.5198 125.311 42.3703 122.269 42.3703C118.427 42.3703 113.79 40.1048 113.79 35.0017V24.6582H112.776C111.113 24.6582 109.734 23.3137 109.734 21.6833Z" fill="#353EEF"/>
</svg>
