<svg width="100" height="100" viewBox="0 0 100 100" fill="none" xmlns="http://www.w3.org/2000/svg">
<rect width="100" height="100" rx="8" fill="#353EEF"/>
<path d="M33 71H22V60" stroke="white" stroke-width="2"/>
<path d="M22 39V28H33" stroke="white" stroke-width="2"/>
<path d="M66 28H77V39" stroke="white" stroke-width="2"/>
<path d="M77 60V71H66" stroke="white" stroke-width="2"/>
<path d="M39 55C43.0737 51.97 45.1111 49.5455 45.1111 47.7273C45.1111 45 43.8889 45 42.6667 45C41.4444 45 40.1831 45.9864 40.2222 47.7273C40.2638 49.5891 42.2487 52.1609 43.2778 53.1818C45.1111 55 46.3333 55.4545 47.5556 54.0909L52.4129 47.7273C52.8199 50.1518 51.6292 55 53.6667 55C54.3144 55 58.6781 51 59.1194 51C59.7512 51 59.1874 53.7882 61 55" stroke="white" stroke-width="2" stroke-linecap="round" stroke-linejoin="round"/>
</svg>
